<svg width="95" height="42" viewBox="0 0 95 42" fill="none" xmlns="http://www.w3.org/2000/svg">
<path d="M23.3632 8.14337C24.2607 7.0892 24.8151 5.87698 24.8151 4.69117C24.8151 1.89769 23.5215 0.000183105 19.324 0.000183105H3.22058V18.4479H20.1161C24.3136 18.4479 26.135 16.0233 26.135 12.9926C26.135 10.9896 24.9734 9.30296 23.3632 8.14337ZM10.0845 4.48016H16.4202C17.1065 4.48016 17.9513 4.48016 17.9513 5.48154C17.9513 6.48309 17.1065 6.48309 16.4202 6.48309H10.0845V4.48016ZM17.7402 13.4406H10.0845V11.4903H17.7402C18.4267 11.4903 19.2713 11.4903 19.2713 12.4655C19.2713 13.4406 18.4265 13.4406 17.7402 13.4406Z" fill="white"/>
<path d="M49.6303 9.19753V0H42.7666V9.19753C42.7666 11.1478 42.0538 12.9135 38.0147 12.9135C33.9757 12.9135 33.2629 11.1741 33.2629 9.19753V0H26.399V9.19753C26.399 15.628 29.8838 18.7113 38.0147 18.7113C46.1191 18.7113 49.6303 15.6016 49.6303 9.19753Z" fill="white"/>
<path d="M70.2218 5.79795V0H50.6863V18.4477H57.5502V13.5723H68.6378V7.77448H57.5502V5.79795H70.2218Z" fill="white"/>
<path d="M90.5491 5.79795V0H71.0137V18.4477H77.8775V13.5723H88.9652V7.77448H77.8775V5.79795H90.5491Z" fill="white"/>
<path d="M4.85243e-05 31.1984C4.85243e-05 36.6039 4.16529 37.8773 11.6365 37.8773C19.1078 37.8773 23.2731 36.6039 23.2731 31.5882C23.2731 26.8323 18.8216 26.3386 11.6365 26.0527C7.67953 25.8969 7.02872 25.9227 7.02872 25.2211C7.02872 24.5195 7.67954 24.3636 10.8555 24.3636C14.1618 24.3636 15.7236 24.5714 15.7236 25.5331H22.4921C22.4921 20.8813 18.4831 19.1662 11.3761 19.1662C4.19122 19.1662 0.260205 20.8813 0.260205 24.8836C0.260205 29.1197 3.41023 30.471 11.6365 30.7309C15.9059 30.8608 16.5046 30.9647 16.5046 31.7444C16.5046 32.4201 15.9058 32.68 11.8968 32.68C7.6014 32.68 6.76839 32.0822 6.76839 31.1985H-0.00012207L4.85243e-05 31.1984Z" fill="white"/>
<path d="M41.496 19.4259V25.6631H30.8226V19.4259H24.0541V37.6174H30.8226V31.3803H41.496V37.6174H48.2645V19.4259H41.496Z" fill="white"/>
<path d="M87.1437 19.4259H72.8257V37.6174H79.5942V33.3553H87.1437C91.2828 33.3553 94.1205 30.4446 94.1205 26.3904C94.1205 22.3364 91.2828 19.4257 87.1437 19.4257V19.4259ZM85.8421 27.638H79.5942V25.1433H85.8421C86.519 25.1433 87.352 25.1433 87.352 26.3906C87.352 27.638 86.519 27.638 85.8421 27.638Z" fill="white"/>
<path fill-rule="evenodd" clip-rule="evenodd" d="M60.1386 15.0437C67.5951 15.0437 73.6399 21.078 73.6399 28.5219C73.6399 35.9657 67.5951 42 60.1386 42C52.6819 42 46.6372 35.9657 46.6372 28.5219C46.6372 21.078 52.6819 15.0437 60.1386 15.0437Z" fill="#FFBE0A"/>
<path fill-rule="evenodd" clip-rule="evenodd" d="M50.6327 26.5321C50.7041 26.1363 50.732 26.3993 51.0891 26.2239C51.2522 25.8557 50.9768 25.7909 51.4618 25.8046C51.4072 26.5754 50.9632 26.7363 50.6327 26.5321ZM59.9022 33.8299C59.9909 33.6424 59.9319 33.719 60.0832 33.6272C60.1867 33.3292 61.0767 32.3869 61.3389 32.0751C62.0512 31.2277 61.8512 31.4111 63.572 31.4245C64.0937 31.4285 65.8651 32.3466 66.606 32.6867C66.91 32.8263 67.3326 33.0567 67.6455 33.1538C67.6507 33.1422 67.6685 33.1145 67.6687 33.1237L67.6668 33.0281C67.3548 32.9259 65.3243 31.7159 64.8755 31.4561C64.4243 31.1946 63.993 30.9526 63.5026 30.6674C62.6615 30.1781 62.8367 30.245 61.7112 30.2449C61.2685 30.2449 61.2569 30.3465 61.0385 30.604L57.5205 34.7993C56.5566 35.9452 54.6112 38.6668 52.0622 38.0125C50.9419 37.7249 50.1914 36.9142 49.878 35.8306C49.2603 33.6952 51.1937 26.9711 51.9799 25.1303C52.3986 24.1502 52.9332 23.13 53.5605 22.3374C54.0898 21.6683 54.9198 20.7243 56.1733 20.5523C58.6183 20.2169 60.4868 22.148 62.9022 22.5981C63.3528 22.6821 64.049 22.1623 64.4086 21.9452C64.8588 21.6732 65.3725 21.3992 65.8172 21.1388L68.6124 19.5189C68.3529 19.5492 65.3687 20.9666 64.7181 21.2709C64.0213 21.5972 64.1066 21.6579 63.2719 21.4653C62.2427 21.228 61.4065 20.905 60.489 20.4227C55.775 17.9441 53.0327 19.9639 51.109 24.1496L50.0657 26.9281C49.4253 29.0434 49.0843 30.9971 48.6808 33.1885C47.7028 38.504 52.3619 41.0856 56.3306 37.8666C57.2638 37.1098 59.713 33.927 59.9022 33.8299Z" fill="white"/>
<path fill-rule="evenodd" clip-rule="evenodd" d="M65.1868 30.1495C65.2539 29.8692 65.2089 29.8937 64.9427 29.7631L64.1875 29.3557C64.1353 29.3208 64.0563 29.2706 63.9935 29.2384C63.9813 29.2321 63.9647 29.2249 63.9523 29.2188C63.449 28.9737 63.4169 28.7986 63.1158 28.6777C62.3567 28.3729 62.9138 28.5006 62.4082 28.0953L62.9727 27.8269C62.9804 27.8378 62.9949 27.8402 62.9986 27.8577C63.0026 27.8756 63.02 27.8831 63.0256 27.8889L63.1146 27.9815C63.4207 28.2768 63.516 28.3405 63.8803 28.4727C63.9463 28.4967 64.0173 28.5302 64.0783 28.5667L65.2696 29.2969C65.9399 29.6149 66.2773 29.8813 66.8959 30.1989L67.5864 30.6127C67.6235 30.6357 67.6919 30.6779 67.7048 30.6856L67.9423 30.8116C67.9546 30.8167 67.9713 30.8229 67.9837 30.8278C67.9964 30.8327 68.0134 30.838 68.0262 30.843C68.0394 30.8481 68.0568 30.8527 68.0701 30.8579C68.7255 31.1177 68.0392 31.0678 68.937 31.3777L69.2216 31.5606C69.2303 31.5683 69.2451 31.5833 69.2528 31.5904L69.6549 31.5989C69.4923 31.3849 67.881 30.5122 67.4279 30.2561C67.3763 30.2268 67.3329 30.207 67.276 30.1679L67.1705 30.0737C66.8319 29.9591 64.6113 28.6319 64.101 28.3397C63.3494 27.9092 62.487 27.4 62.7487 26.1951C62.8093 25.9161 62.9536 25.5271 63.2248 25.4503C63.2661 25.2981 63.2143 25.4021 63.3105 25.288C63.499 25.0641 68.58 22.1994 68.7826 22.1361L69.1206 21.9068C69.2484 21.8328 69.3625 21.7628 69.4758 21.6957C69.6923 21.5674 69.9828 21.3949 70.2199 21.2754C70.8886 20.9388 71.5543 21.0894 72.0332 21.4738C72.5695 21.9041 72.6638 22.3437 72.6632 23.202L72.6626 30.2333C72.6302 32.2697 70.4722 32.2451 70.1153 31.7709L70.0846 31.9102C70.1297 32.2548 71.1568 32.7021 72.2415 31.7427L72.6949 31.2495C72.7391 31.1725 72.7334 31.1786 72.7682 31.054C72.7793 31.0144 72.7969 30.9218 72.8146 30.8556C72.9361 30.4 72.8962 30.4344 72.895 29.9228C72.8921 28.7532 72.9861 22.7802 72.8249 22.3099C72.6324 21.7483 72.7711 21.6524 72.2786 21.3999C72.1826 21.3506 72.202 21.3842 72.1261 21.3067C72.0004 21.1785 72.0683 21.2571 71.9946 21.1057C72.6282 20.9841 72.4485 20.7515 72.8082 21.0662C73.0006 21.2347 72.9934 21.2834 73.112 21.4591C73.1507 21.5165 73.1584 21.5223 73.1966 21.5731C73.5438 22.0318 73.5003 22.8438 73.481 23.3868C73.4139 25.2805 73.4984 27.8422 73.4902 29.861C73.4883 30.3244 73.5095 30.9101 73.316 31.2863C73.1705 31.569 73.0922 31.7915 72.8812 32.0087L71.9929 32.6442C70.63 33.1289 70.8149 32.6902 70.1 33.0053C70.4493 32.9658 70.9216 33.2573 71.8435 32.9549C73.8711 32.2898 73.72 30.4795 73.72 28.9361L73.7202 23.0165C73.719 22.1461 73.5946 22.0252 73.3664 21.3522C73.2432 21.3213 73.2488 21.2714 73.2249 21.1175C72.9213 20.9353 72.3718 20.0388 70.9814 20.0325C70.027 20.0282 69.2646 20.5926 68.6199 20.9715C67.2603 21.7708 65.8419 22.5812 64.5074 23.3399C63.1092 24.1347 61.3418 24.7967 61.704 27.0871C61.8531 28.029 62.4672 28.6261 63.0909 28.9839C63.5572 29.2515 64.8139 30.0401 65.1867 30.1488L65.1868 30.1495Z" fill="white"/>
<path fill-rule="evenodd" clip-rule="evenodd" d="M55.9889 25.5086C55.5001 25.6084 55.0267 25.4216 54.6061 25.6569C54.3026 25.8269 54.0579 26.136 54.0677 26.5922C54.0944 27.8315 55.5413 27.5899 55.9805 27.6326C55.9962 28.0854 55.8016 29.589 57.0776 29.5344C58.3277 29.4807 58.027 28.0044 58.1014 27.6125C58.659 27.6037 60.0347 27.7988 59.9997 26.533C59.9685 25.4011 58.9375 25.5801 58.092 25.5268C58.0422 25.1097 58.3206 23.5985 57.0218 23.6116C55.7357 23.6247 56.0281 25.0837 55.9886 25.5086H55.9889Z" fill="white"/>
<path fill-rule="evenodd" clip-rule="evenodd" d="M70.1155 31.7713C69.8924 31.6834 69.8383 31.5957 69.6549 31.5993L69.2528 31.5908C69.2451 31.5836 69.2303 31.5688 69.2216 31.561L68.937 31.3781C68.039 31.0681 68.7255 31.1178 68.0701 30.8583C68.0568 30.853 68.0394 30.8484 68.0262 30.8433C68.0133 30.8384 67.9964 30.8331 67.9837 30.8282C67.9713 30.8232 67.9546 30.8171 67.9423 30.812L67.7048 30.686C67.692 30.6783 67.6235 30.6361 67.5864 30.6131L66.8959 30.1992C66.2773 29.8816 65.9399 29.6153 65.2696 29.2973L64.0783 28.567C64.0172 28.5306 63.9465 28.4971 63.8803 28.473C63.516 28.3409 63.4207 28.2772 63.1146 27.9819L63.0256 27.8892C63.02 27.8835 63.0024 27.876 62.9986 27.8581C62.9949 27.8405 62.9805 27.8382 62.9727 27.8273L62.4082 28.0956C62.9137 28.5008 62.3565 28.3731 63.1158 28.6781C63.4168 28.799 63.449 28.9739 63.9523 29.2191C63.9645 29.2253 63.9813 29.2324 63.9935 29.2387C64.0563 29.2707 64.1355 29.321 64.1875 29.3561L64.9427 29.7634C65.2089 29.894 65.2541 29.8695 65.1868 30.1498C65.2928 30.304 67.2009 31.3479 67.595 31.5763C68.0474 31.8384 68.4258 32.062 68.8492 32.2997C69.0534 32.4145 70.0222 32.9268 70.1 33.0063C70.8149 32.6911 70.63 33.1298 71.9929 32.6453L72.8812 32.0097C73.0922 31.7926 73.1705 31.5698 73.316 31.2873C73.5095 30.9111 73.4883 30.3254 73.4902 29.862C73.4984 27.8433 73.4139 25.2814 73.481 23.3878C73.5003 22.8447 73.5438 22.0329 73.1966 21.5741C73.1582 21.5233 73.1507 21.5175 73.112 21.4602C72.9934 21.2844 73.0006 21.2357 72.8082 21.0673C72.4485 20.7524 72.6282 20.9852 71.9946 21.1068C72.0683 21.2583 72.0006 21.1797 72.1261 21.3077C72.202 21.3851 72.1826 21.3517 72.2786 21.4009C72.7711 21.6534 72.6324 21.7493 72.8249 22.311C72.9861 22.7812 72.8923 28.7542 72.895 29.9238C72.8964 30.4353 72.9361 30.401 72.8146 30.8566C72.7967 30.9228 72.7792 31.0155 72.7682 31.055C72.7334 31.1797 72.7391 31.1734 72.6949 31.2505L72.2414 31.7437C71.1568 32.7032 70.1297 32.2558 70.0846 31.9113L70.1153 31.772L70.1155 31.7713Z" fill="white" stroke="white" stroke-width="0.75567" stroke-miterlimit="22.9256"/>
<path fill-rule="evenodd" clip-rule="evenodd" d="M70.0846 26.717C69.8826 25.9115 71.123 25.7688 71.2138 26.4834C71.3086 27.2315 70.2421 27.345 70.0846 26.717ZM71.418 26.1007L71.312 25.9309C70.9072 25.7591 70.5384 25.5316 70.0896 25.8887C69.7827 26.1327 69.6463 26.677 69.9369 27.0823C70.456 27.8068 71.8211 27.4209 71.418 26.1007Z" fill="white"/>
<path fill-rule="evenodd" clip-rule="evenodd" d="M68.3894 28.4434C68.1565 27.6825 69.301 27.385 69.4917 28.0979C69.7043 28.8927 68.5806 29.0679 68.3894 28.4434ZM68.6563 27.4623C67.4958 27.9586 68.2252 29.4596 69.2681 29.0758C70.3031 28.695 69.7023 27.0149 68.6563 27.4623Z" fill="white"/>
<path fill-rule="evenodd" clip-rule="evenodd" d="M68.7371 24.3439C69.4361 24.0506 69.8376 25.1493 69.1574 25.4016C68.4498 25.6641 68.0127 24.6477 68.7371 24.3439ZM68.6495 24.0731C68.1217 24.2884 67.9556 24.7301 68.1297 25.1869C68.2918 25.6121 68.8044 25.8414 69.2589 25.6801C70.2654 25.3224 69.7589 23.6208 68.6497 24.0731H68.6495Z" fill="white"/>
<path fill-rule="evenodd" clip-rule="evenodd" d="M67.0553 26.0404C67.7179 25.749 68.1505 26.803 67.4682 27.0987C66.8366 27.3723 66.2276 26.4042 67.0553 26.0404ZM67.0475 25.7349C65.8519 26.0958 66.3694 27.638 67.4523 27.4081C68.5472 27.1757 68.1405 25.4048 67.0475 25.7349Z" fill="white"/>
<path fill-rule="evenodd" clip-rule="evenodd" d="M50.6327 26.5321C50.9633 26.7363 51.4072 26.5752 51.4618 25.8044C50.9768 25.7908 51.2521 25.8556 51.089 26.2237C50.732 26.3991 50.704 26.1361 50.6327 26.5319V26.5321Z" fill="white"/>
</svg>
